HIERARCHY
ROOT Hips
{
  OFFSET 0.0 0.0 0.0
  CHANNELS 6 Xposition Yposition Zposition Zrotation Yrotation Xrotation
  JOINT LHipJoint
  {
    OFFSET 0.0 0.0 0.0
    CHANNELS 3 Zrotation Yrotation Xrotation
    JOINT LeftUpLeg
    {
      OFFSET 1.363059998 -1.794630051 0.839290023
      CHANNELS 3 Zrotation Yrotation Xrotation
      JOINT LeftLeg
      {
        OFFSET 2.448110104 -6.726130009 0.0
        CHANNELS 3 Zrotation Yrotation Xrotation
        JOINT LeftFoot
        {
          OFFSET 2.562200069 -7.039589882 0.0
          CHANNELS 3 Zrotation Yrotation Xrotation
          JOINT LeftToeBase
          {
            OFFSET 0.157639995 -0.433109999 2.322550058
            CHANNELS 3 Zrotation Yrotation Xrotation
            End Site
            {
              OFFSET 0.0 -0.0 1.189659953
            }
          }
        }
      }
    }
  }
  JOINT RHipJoint
  {
    OFFSET 0.0 0.0 0.0
    CHANNELS 3 Zrotation Yrotation Xrotation
    JOINT RightUpLeg
    {
      OFFSET -1.305520058 -1.794630051 0.839290023
      CHANNELS 3 Zrotation Yrotation Xrotation
      JOINT RightLeg
      {
        OFFSET -2.54253006 -6.985549927 0.0
        CHANNELS 3 Zrotation Yrotation Xrotation
        JOINT RightFoot
        {
          OFFSET -2.568259954 -7.056230068 0.0
          CHANNELS 3 Zrotation Yrotation Xrotation
          JOINT RightToeBase
          {
            OFFSET -0.164729998 -0.452589989 2.363149881
            CHANNELS 3 Zrotation Yrotation Xrotation
            End Site
            {
              OFFSET -0.0 -0.0 1.21081996
            }
          }
        }
      }
    }
  }
  JOINT LowerBack
  {
    OFFSET 0.0 0.0 0.0
    CHANNELS 3 Zrotation Yrotation Xrotation
    JOINT Spine
    {
      OFFSET 0.028270001 2.035589933 -0.193379998
      CHANNELS 3 Zrotation Yrotation Xrotation
      JOINT Spine1
      {
        OFFSET 0.05672 2.04885006 -0.042750001
        CHANNELS 3 Zrotation Yrotation Xrotation
        JOINT Neck
        {
          OFFSET 0.0 0.0 0.0
          CHANNELS 3 Zrotation Yrotation Xrotation
          JOINT Neck1
          {
            OFFSET -0.054170001 1.74624002 0.172020003
            CHANNELS 3 Zrotation Yrotation Xrotation
            JOINT Head
            {
              OFFSET 0.10407 1.761360049 -0.123970002
              CHANNELS 3 Zrotation Yrotation Xrotation
              End Site
              {
                OFFSET 0.0372 1.770439982 -0.062410001
              }
            }
          }
        }
        JOINT LeftShoulder
        {
          OFFSET 0.0 0.0 0.0
          CHANNELS 3 Zrotation Yrotation Xrotation
          JOINT LeftArm
          {
            OFFSET 3.362410069 1.200889945 -0.311210006
            CHANNELS 3 Zrotation Yrotation Xrotation
            JOINT LeftForeArm
            {
              OFFSET 4.982999802 -0.0 -0.0
              CHANNELS 3 Zrotation Yrotation Xrotation
              JOINT LeftHand
              {
                OFFSET 3.483560085 -0.0 -0.0
                CHANNELS 3 Zrotation Yrotation Xrotation
                JOINT LeftFingerBase
                {
                  OFFSET 0.0 0.0 0.0
                  CHANNELS 3 Zrotation Yrotation Xrotation
                  JOINT LeftHandIndex1
                  {
                    OFFSET 0.715260029 -0.0 -0.0
                    CHANNELS 3 Zrotation Yrotation Xrotation
                    End Site
                    {
                      OFFSET 0.576659977 -0.0 -0.0
                    }
                  }
                }
                JOINT LThumb
                {
                  OFFSET 0.0 0.0 0.0
                  CHANNELS 3 Zrotation Yrotation Xrotation
                  End Site
                  {
                    OFFSET 0.585470021 -0.0 0.585470021
                  }
                }
              }
            }
          }
        }
        JOINT RightShoulder
        {
          OFFSET 0.0 0.0 0.0
          CHANNELS 3 Zrotation Yrotation Xrotation
          JOINT RightArm
          {
            OFFSET -3.136600018 1.374050021 -0.404650003
            CHANNELS 3 Zrotation Yrotation Xrotation
            JOINT RightForeArm
            {
              OFFSET -5.241899967 -0.0 -0.0
              CHANNELS 3 Zrotation Yrotation Xrotation
              JOINT RightHand
              {
                OFFSET -3.444169998 -0.0 -0.0
                CHANNELS 3 Zrotation Yrotation Xrotation
                JOINT RightFingerBase
                {
                  OFFSET 0.0 0.0 0.0
                  CHANNELS 3 Zrotation Yrotation Xrotation
                  JOINT RightHandIndex1
                  {
                    OFFSET -0.622529984 -0.0 -0.0
                    CHANNELS 3 Zrotation Yrotation Xrotation
                    End Site
                    {
                      OFFSET -0.501900017 -0.0 -0.0
                    }
                  }
                }
                JOINT RThumb
                {
                  OFFSET 0.0 0.0 0.0
                  CHANNELS 3 Zrotation Yrotation Xrotation
                  End Site
                  {
                    OFFSET -0.509559989 -0.0 0.509559989
                  }
                }
              }
            }
          }
        }
      }
    }
  }
}
MOTION
Frames: 10
Frame Time: 0.0083333
5.240500927 17.63699913 -7.45659399 -171.847000122 -37.920406342 177.718994141 0.0 -0.0 0.0 -6.113698959 -3.67819953 -27.914798737 6.250999451 14.667200089 45.980892181 0.255400032 -8.421498299 -10.040201187 0.188799977 -2.798500061 -7.718399048 0.0 -0.0 0.0 32.107803345 -2.766600132 0.769299805 -0.9278 -6.136101246 17.179700851 -0.584699929 10.474401474 -14.477003098 -1.422600031 -7.542601109 21.333202362 5.982201099 2.38650012 7.951901913 2.426200628 3.407999992 3.241500139 -1.12559998 1.6256001 -0.879099965 -7.694300175 -6.745800018 -6.261799812 2.053200245 -9.374601364 19.731998444 1.094600081 -5.093200684 7.561201572 0.0 -0.0 0.0 -87.282501221 3.893000841 13.027099609 15.363998413 -24.650699615 -3.37629962 0.0 -0.0 1.809800386 12.842498779 -7.331398964 -1.666399956 -7.125 0.0 0.0 -10.177100182 22.496397018 5.594999313 0.0 -0.0 0.0 83.960418701 2.235500336 -0.356499672 -11.718300819 19.380899429 -2.007800579 0.0 0.0 -5.302598953 -23.304901123 -20.977499008 8.766901016 7.125 -0.0 0.0 5.490600586 -52.556903839 -1.023699403 
5.202701092 17.645200729 -7.498294353 -171.736999512 -37.805595398 177.684997559 0.0 -0.0 0.0 -6.083600998 -3.641399622 -28.2558918 6.039001465 14.465997696 45.137992859 0.246900052 -8.375601768 -9.907100677 0.155300021 -2.539100409 -6.998001099 0.0 -0.0 0.0 32.105998993 -3.052800417 1.044899583 -0.901600003 -6.051499367 16.933898926 -0.595999897 10.733500481 -14.663200378 -1.261599779 -7.119997978 20.071296692 6.203899384 2.402599812 8.075701714 2.474900007 3.448799372 3.252599716 -1.206199884 1.64289999 -0.92170018 -7.64649868 -6.69949913 -6.467800617 2.056200266 -9.310198784 19.899499893 1.083199978 -5.058799267 7.647202015 0.0 -0.0 0.0 -87.299987793 4.041198254 13.586398125 15.411502838 -24.716201782 -3.39610076 0.0 -0.0 1.532400012 13.089100838 -7.134699345 -1.65410006 -7.125 0.0 0.0 -10.008500099 22.686897278 5.45510006 0.0 -0.0 0.0 84.062416077 2.316600084 -0.981899559 -11.487298965 19.031400681 -1.931800127 0.0 0.0 -5.091899872 -23.303804398 -22.096300125 9.203700066 7.125 -0.0 0.0 5.846700191 -53.733200073 -1.258800745 
5.163501263 17.659599304 -7.541295528 -171.393005371 -37.737697601 177.580993652 0.0 -0.0 0.0 -5.805399418 -3.735799789 -28.630399704 5.808698654 14.240301132 44.208904266 0.223000005 -8.498299599 -9.619298935 0.112499982 -2.162400007 -5.954598904 0.0 -0.0 0.0 32.332111359 -3.163600206 1.226899624 -0.883699954 -5.992699146 16.763097763 -0.64770025 10.706001282 -15.153301239 -1.006100059 -6.382400036 17.898000717 6.503500462 2.317898989 8.1104002 2.673400402 3.354299784 3.227499962 -1.161900043 1.589499712 -0.965499997 -7.936299324 -6.554400921 -6.505198956 2.164899826 -9.088196754 19.896495819 1.184299946 -4.965000629 7.661201477 0.0 -0.0 0.0 -87.546806335 4.232499599 13.750999451 15.488100052 -24.82170105 -3.428199291 0.0 -0.0 1.481600046 13.082201958 -7.105400085 -1.646500349 -7.125 0.0 0.0 -10.015100479 22.716701508 5.451898098 0.0 -0.0 0.0 83.897094727 2.388099432 -0.720600188 -11.313098907 18.766597748 -1.875399232 0.0 0.0 -6.066699028 -22.429800034 -24.00110054 9.531000137 7.125 -0.0 0.0 7.449498653 -55.544891357 -1.935799837 
5.123200893 17.666799545 -7.585195065 -171.305999756 -37.622104645 177.585006714 0.0 -0.0 0.0 -5.777099609 -3.761100054 -28.91060257 5.567200184 13.995399475 43.21900177 0.217000067 -8.561202049 -9.559199333 0.09799999 -2.018900394 -5.557899952 0.0 -0.0 0.0 32.324798584 -3.281900406 1.490400434 -0.855799973 -5.899600506 16.493301392 -0.645999849 10.871899605 -15.183197975 -0.923699975 -6.123000145 17.14169693 6.491999626 2.271499395 8.137900352 2.90079999 3.278999805 3.285899639 -0.914799929 1.545399904 -0.938500226 -8.309597015 -6.420899868 -6.534599304 2.297800303 -8.856499672 19.718101501 1.31129992 -4.864200592 7.620001793 0.0 -0.0 0.0 -87.941001892 4.231900215 13.613898277 15.446201324 -24.764003754 -3.410701275 0.0 -0.0 1.622700095 13.064596176 -7.288299561 -1.686299443 -7.125 0.0 0.0 -10.018099785 22.532501221 5.496500015 0.0 -0.0 0.0 83.499191284 2.577900171 -0.869799852 -11.051300049 18.366800308 -1.791999817 0.0 0.0 -5.695899963 -23.312702179 -22.782501221 9.473701477 7.125 -0.0 0.0 6.071098328 -54.454185486 -1.414198637 
5.080601215 17.672399521 -7.628894329 -171.610992432 -37.479003906 177.835006714 0.0 -0.0 0.0 -6.161699295 -3.621500492 -29.250593185 5.326599121 13.742399216 42.215099335 0.223799989 -8.407500267 -9.5955019 0.106299989 -2.102000237 -5.787599564 0.0 -0.0 0.0 31.974004745 -3.33109951 1.868099928 -0.81400013 -5.757300854 16.08190155 -0.59800005 11.133800507 -14.802898407 -1.019699931 -6.424301147 18.020601273 6.266899586 2.354700327 8.178501129 2.942200184 3.368899584 3.351099491 -0.754899919 1.588499784 -0.904399991 -8.352701187 -6.420999527 -6.634099483 2.375099182 -8.842797279 19.631896973 1.342500329 -4.847800255 7.614101887 0.0 -0.0 0.0 -88.133911133 4.091299534 13.693602562 15.341500282 -24.619697571 -3.366901159 0.0 -0.0 2.008699894 12.992697716 -7.538000107 -1.733700037 -7.125 0.0 0.0 -10.057397842 22.282999039 5.576898575 0.0 -0.0 0.0 83.347412109 2.728700399 -1.902699709 -10.746901512 17.899301529 -1.697300792 0.0 0.0 -3.742300034 -23.252901077 -21.049200058 8.77340126 7.125 -0.0 0.0 5.565197468 -52.62279129 -1.046598673 
5.038000584 17.676599503 -7.671294689 -171.658996582 -37.373287201 177.968002319 0.0 -0.0 0.0 -6.315400124 -3.607200146 -29.673002243 5.093598843 13.488401413 41.225402832 0.233100012 -7.892999172 -9.535498619 0.181100011 -2.741099596 -7.558601379 0.0 -0.0 0.0 31.875898361 -3.369899988 2.235000372 -0.771600068 -5.608799934 15.653400421 -0.563499808 11.213400841 -14.494301796 -1.055200338 -6.531600475 18.334903717 6.397400379 2.391400337 8.270001411 2.898300409 3.440299988 3.299099922 -0.88350004 1.623000145 -0.993799984 -8.037200928 -6.391800404 -6.488400459 2.297199249 -8.833500862 19.479701996 1.276600003 -4.827199936 7.517800808 0.0 -0.0 0.0 -88.020706177 4.185201645 14.172199249 15.321498871 -24.592096329 -3.358598948 0.0 -0.0 2.019100428 12.876700401 -7.920699596 -1.804299951 -7.125 0.0 0.0 -10.121899605 21.901000977 5.703299999 0.0 -0.0 0.0 83.55909729 2.677599669 -2.711299896 -10.561898232 17.613697052 -1.640899539 0.0 0.0 -2.409599543 -23.798902512 -19.731700897 8.469099998 7.125 -0.0 0.0 4.636701107 -51.327709198 -0.724000335 
4.995101452 17.674800873 -7.715194225 -171.339004517 -37.325611115 177.843002319 0.0 -0.0 0.0 -6.137900829 -3.674399853 -30.061294556 4.86909914 13.234900475 40.254196167 0.220700055 -7.59110117 -9.247200012 0.102999985 -2.069299936 -5.697199821 0.0 -0.0 0.0 32.089702606 -3.626100063 2.581600189 -0.724600136 -5.439099789 15.165402412 -0.544700146 11.214399338 -14.310500145 -0.971199989 -6.274099827 17.581697464 6.768900871 2.366400242 8.400899887 2.968799829 3.443200111 3.259299994 -1.022699833 1.619300008 -1.086999774 -7.592699528 -6.284101963 -6.40130043 2.015599966 -8.684299469 19.316698074 1.136399746 -4.747098923 7.40599823 0.0 -0.0 0.0 -87.953704834 4.347502708 14.758097649 15.360506058 -24.645803452 -3.374801636 0.0 -0.0 1.670099974 12.999297142 -8.196399689 -1.885100245 -7.125 0.0 0.0 -10.020299911 21.618093491 5.709798813 0.0 -0.0 0.0 83.73740387 2.688800335 -3.219099045 -10.464600563 17.462997437 -1.611599684 0.0 0.0 -1.929900289 -24.344600677 -19.165403366 8.448901176 7.125 -0.0 0.0 3.9454 -50.819194794 -0.566500187 
4.950901508 17.680799484 -7.760694027 -171.141998291 -37.283485413 177.832000732 0.0 -0.0 0.0 -6.072100163 -3.737500906 -30.464105606 4.648499489 12.976701736 39.281398773 0.202600032 -7.280499458 -8.860501289 0.100499995 -2.044399977 -5.628399372 0.0 -0.0 0.0 32.18289566 -3.881499529 2.913300037 -0.666899979 -5.222498894 14.544196129 -0.521700382 11.184900284 -14.072500229 -0.887500226 -6.005100727 16.799102783 6.976200581 2.365599871 8.425499916 3.08280015 3.45080018 3.27760005 -1.020300031 1.619599938 -1.073899984 -7.400201797 -6.220900059 -6.528700352 1.804300189 -8.573299408 19.375200272 1.043000102 -4.697900295 7.423703671 0.0 -0.0 0.0 -88.07749176 4.396698952 15.17239666 15.417297363 -24.724199295 -3.398600101 0.0 -0.0 1.429299951 13.220299721 -8.203999519 -1.919999957 -7.125 0.0 0.0 -9.860898972 21.601703644 5.620000362 0.0 -0.0 0.0 83.721420288 2.813901424 -3.396299601 -10.379800797 17.331497192 -1.58619976 0.0 0.0 -1.789599776 -24.465797424 -19.849199295 8.782500267 7.125 -0.0 0.0 3.998900414 -51.570201874 -0.647900343 
4.903900623 17.69260025 -7.807994366 -171.17300415 -37.192199707 178.011001587 0.0 -0.0 0.0 -6.164898872 -3.977600098 -30.813804626 4.425700188 12.706301689 38.27879715 0.197799996 -7.010099411 -8.690698624 0.033199996 -1.176499724 -3.234499693 0.0 -0.0 0.0 32.076503754 -3.945799828 3.296899557 -0.608200014 -4.991799355 13.885199547 -0.495300204 11.202097893 -13.814398766 -0.845100164 -5.863400459 16.388706207 7.061300755 2.394800186 8.38120079 3.126900196 3.487700462 3.289300203 -1.021999836 1.637899756 -1.031599641 -7.388101101 -6.229400158 -6.638700485 1.760099888 -8.57449913 19.460897446 1.021199942 -4.701401234 7.469002247 0.0 -0.0 0.0 -88.176300049 4.403097153 15.48279953 15.440699577 -24.756498337 -3.408399105 0.0 -0.0 1.431100011 13.176400185 -8.137999535 -1.898099542 -7.125 0.0 0.0 -9.895399094 21.670200348 5.624599457 0.0 -0.0 0.0 83.663703918 2.833100557 -2.997300148 -10.290101051 17.192100525 -1.559600234 0.0 0.0 -2.138499975 -24.854904175 -20.545999527 9.234102249 7.125 -0.0 0.0 3.790600061 -52.384403229 -0.689799726 
4.85530138 17.695199966 -7.854394436 -171.186004639 -37.093490601 178.158996582 0.0 -0.0 0.0 -6.267399311 -4.109098434 -31.170501709 4.198399544 12.419798851 37.233909607 0.213699967 -6.324098587 -8.730998993 0.204800054 -2.913700342 -8.038700104 0.0 -0.0 0.0 31.963495255 -4.147600174 3.662899971 -0.553500116 -4.765699863 13.241399765 -0.467999876 11.362100601 -13.594600677 -0.760399818 -5.568799496 15.538197517 7.15500164 2.44680047 8.379700661 3.189800262 3.556199312 3.316900253 -1.01309979 1.670899749 -0.994699657 -7.299201965 -6.258299828 -6.670701027 1.703300238 -8.595896721 19.30579567 0.988700092 -4.703700542 7.418099403 0.0 -0.0 0.0 -88.289909363 4.307403564 15.722299576 15.42250061 -24.731403351 -3.400701046 0.0 -0.0 1.75880003 12.648499489 -8.061001778 -1.802500129 -7.125 0.0 0.0 -10.279399872 21.768003464 5.826601505 0.0 -0.0 0.0 83.578300476 2.907999992 -2.697700024 -10.172300339 17.00859642 -1.524999142 0.0 0.0 -2.418899536 -25.156400681 -20.0727005 9.156401634 7.125 -0.0 0.0 3.359299898 -51.933105469 -0.573999465 
